<?xml version="1.0" encoding="UTF-8"?>
<svg id="Calque_1" xmlns="http://www.w3.org/2000/svg" version="1.1" viewBox="0 0 512 512">
  <!-- Generator: Adobe Illustrator 30.1.0, SVG Export Plug-In . SVG Version: 2.1.1 Build 136)  -->
  <defs>
    <style>
      .st0 {
        fill: #fff;
      }

      .st1 {
        fill: #186fb6;
      }
    </style>
  </defs>
  <path class="st1" d="M0,512V0h196.9C239.2,0,276.4,6.7,308.6,20.2c32.2,13.5,59.1,31.7,80.8,54.8,21.6,23.1,38,50.1,49,81.1,11.1,31,16.6,64.1,16.6,99.2s-6.1,74.2-18.4,105.6c-12.3,31.5-29.7,58.4-52.3,80.8-22.6,22.4-49.8,39.7-81.5,51.9-31.7,12.3-67.1,18.4-106,18.4H0Z"/>
  <path class="st0" d="M163.6,236.5v75.9h66.7c-23.5,25.3-50.6,38-81.4,38s-25.5-2.4-36.3-7.3-20.2-11.7-27.9-20.6c-7.8-8.9-13.8-19.4-18.2-31.7-4.3-12.3-6.5-26-6.5-41.2s2.2-28.5,6.5-41c4.3-12.5,10.3-23.2,17.9-32.3,7.6-9,16.6-16.1,27.1-21.2,10.5-5.1,22.1-7.6,34.7-7.6s33.1,4.6,48.3,13.8c15.2,9.2,26.6,21.4,34.2,36.6l78.7-60.2c-6.9-13-15.7-24.7-26.6-35-10.8-10.3-23.1-19.2-36.6-26.6-13.6-7.4-28.3-13-44.2-16.8-15.9-3.8-32.5-5.7-49.9-5.7-27.9,0-53.8,5-77.8,14.9-24.1,10-44.9,23.5-62.7,40.7-3.3,3.2-6.5,6.5-9.6,10v263.8c2.7,3.2,5.5,6.2,8.5,9.1,17,17,36.9,29.9,59.7,38.8,22.8,8.9,46.7,13.3,71.6,13.3,35.8,0,67.4-11.6,94.9-34.7v32h87.3v-205h-158.4Z"/>
  <g>
    <path class="st0" d="M358.3,420.6c1.7,2,2.6,4.4,2.6,7.1s-.3,3.6-1,5.3c-.7,1.7-1.6,3.2-2.9,4.4-1.3,1.3-2.8,2.3-4.6,3-1.8.8-3.9,1.1-6.3,1.1s-3.9-.4-5.6-1.1c-1.7-.8-3.2-1.8-4.5-3.1-1.3-1.3-2.3-2.9-3-4.7-.7-1.8-1.1-3.7-1.1-5.8s.1-2.5.4-3.7c.3-1.2.7-2.3,1.3-3.3s1.2-1.9,2-2.7c.8-.8,1.6-1.5,2.6-2l4.5,5.9c-1.1.6-2,1.4-2.7,2.5s-1,2.3-1,3.6.2,1.8.6,2.6c.4.8.9,1.5,1.6,2,.7.6,1.5,1,2.4,1.3.9.3,1.9.5,3,.5s2.2-.2,3.1-.5c.9-.3,1.7-.8,2.4-1.4.7-.6,1.2-1.3,1.5-2.1.4-.8.5-1.7.5-2.7,0-2.3-.9-4.3-2.8-6.1v5h-5.7v-11.8h15.3v6.5h-2.4Z"/>
    <path class="st0" d="M345.9,396.3c0,1.5.2,2.8.5,4,.3,1.2.9,2.1,1.6,2.7h12.6v7.7h-21.2v-7h4c-1.4-.8-2.5-1.7-3.3-2.8-.8-1.1-1.2-2.3-1.2-3.6s0-.8,0-1h6.9Z"/>
    <path class="st0" d="M361,387.9c0,1.1-.2,2-.5,2.9s-.8,1.7-1.4,2.4c-.6.7-1.3,1.2-2.2,1.6-.8.4-1.7.6-2.7.6s-2.1-.2-2.9-.7-1.7-1.1-2.3-1.9c-.6-.8-1.1-1.8-1.5-2.9-.3-1.1-.5-2.3-.5-3.7s.3-3.1.8-4.3h-.6c-1,0-1.7.3-2.2.9-.5.6-.7,1.5-.7,2.8s.2,2.3.6,3.4c.4,1,1,2.1,1.7,3.2l-4.8,2.2c-1.8-2.8-2.7-6-2.7-9.6s.8-6,2.3-7.8c1.5-1.8,3.8-2.7,6.8-2.7h4.1c.7,0,1.2-.1,1.5-.3.3-.2.5-.6.5-1.1h6.5c.1.6.2,1.2.3,1.8,0,.6.1,1,.1,1.5,0,1.4-.2,2.4-.7,3.1-.5.7-1.2,1.2-2.2,1.4l-.8.2c1.2.9,2.1,2,2.8,3.3.6,1.2.9,2.6.9,4ZM355.6,385.6c0-.5,0-.9-.2-1.4-.1-.5-.3-.9-.6-1.3-.2-.3-.5-.5-.7-.7-.3-.2-.5-.3-.8-.3h-1.6c-.2.5-.3,1-.4,1.5-.1.5-.2,1-.2,1.5,0,.9.2,1.7.7,2.3.5.6,1,.9,1.7.9s1.1-.2,1.5-.7.6-1.1.6-1.8Z"/>
    <path class="st0" d="M361,355.7c0,1.5-.3,2.9-.9,4-.6,1.1-1.5,2-2.6,2.6h11.7v7.7h-29.8v-6.7h3.2c-1.2-.8-2-1.7-2.7-2.8-.6-1.1-.9-2.5-.9-4.1s.3-2.7.8-3.9c.6-1.2,1.3-2.2,2.3-3.1,1-.9,2.1-1.5,3.5-2,1.3-.5,2.8-.7,4.4-.7s3.1.2,4.4.7,2.5,1.1,3.5,1.9c1,.8,1.8,1.8,2.3,2.9.6,1.1.8,2.3.8,3.6ZM354.6,358.4c0-.6-.1-1.1-.4-1.6s-.6-.9-1-1.2c-.4-.3-.9-.6-1.5-.8-.6-.2-1.2-.3-1.8-.3-1.3,0-2.4.4-3.2,1.2-.8.8-1.2,1.8-1.2,3s.7,2.6,2.2,3.6h3.7c.9-.4,1.7-.9,2.3-1.7.6-.7.9-1.5.9-2.3Z"/>
    <path class="st0" d="M337.6,343.9h-6.5v-7.7h6.5v7.7ZM360.6,343.9h-21.2v-7.7h21.2v7.7Z"/>
    <path class="st0" d="M360.6,331.8h-28.7v-11c0-2.4.4-4.5,1.1-6.3.8-1.8,1.8-3.3,3.1-4.5,1.3-1.2,2.8-2.1,4.5-2.7s3.6-.9,5.5-.9,4.2.3,5.9,1c1.8.7,3.3,1.7,4.5,2.9,1.3,1.3,2.2,2.8,2.9,4.6s1,3.8,1,5.9v11ZM346.3,314.3c-1.1,0-2.1.1-3,.4-.9.3-1.7.7-2.3,1.3-.6.6-1.2,1.2-1.5,2-.4.8-.5,1.7-.5,2.7v3.1h14.9v-3.1c0-1-.2-1.9-.6-2.7-.4-.8-.9-1.5-1.6-2-.7-.6-1.5-1-2.4-1.3s-1.9-.4-3-.4Z"/>
    <path class="st0" d="M361,293c0,1.9-.3,3.5-.9,5-.6,1.5-1.4,2.7-2.4,3.7-1,1-2.1,1.7-3.4,2.2-1.3.5-2.6.8-4.1.8s-3-.2-4.4-.7-2.6-1.2-3.6-2.2c-1-1-1.8-2.2-2.4-3.6-.6-1.4-.9-3.1-.9-5s.3-3.6.9-5c.6-1.5,1.4-2.7,2.4-3.7,1-1,2.2-1.7,3.5-2.2s2.7-.7,4.2-.7.8,0,1.2,0,.8,0,1.1.1v14.9c1.1,0,1.9-.5,2.4-1.3.5-.8.7-1.6.7-2.5s-.2-1.6-.6-2.4c-.4-.7-.9-1.2-1.6-1.5l1.9-6.5c1.7.9,3.1,2.2,4.2,4,1.1,1.8,1.6,4,1.6,6.6ZM347.8,289.6c-1,.1-1.8.5-2.4,1.1s-.9,1.4-.9,2.4.3,1.8.9,2.4c.6.6,1.4,1,2.4,1.1v-7Z"/>
    <path class="st0" d="M361,270.1c0,1.9-.3,3.7-.9,5.4-.6,1.8-1.5,3.3-2.6,4.5l-4.6-2.6c.9-1.3,1.6-2.6,2.1-3.8.5-1.2.7-2.3.7-3.4s-.3-1.6-1-1.6-.7.2-1,.6c-.3.4-.6,1.2-.9,2.4-.4,1.5-.9,2.8-1.3,3.8-.4,1-.9,1.8-1.4,2.5s-1,1.1-1.6,1.4c-.6.3-1.3.4-2.1.4s-2.1-.2-3-.6c-.9-.4-1.7-1-2.4-1.8-.7-.8-1.2-1.7-1.6-2.7s-.5-2.2-.5-3.5.2-3,.6-4.5c.4-1.4,1.2-2.8,2.5-4.3l4.6,2.9c-.9,1.3-1.5,2.4-1.8,3.3s-.5,1.7-.5,2.5,0,.8.3,1.1c.2.3.5.4.8.4s.7-.2,1-.6c.3-.4.5-1.3.9-2.5.4-1.5.8-2.8,1.3-3.9.4-1,.9-1.9,1.5-2.5.5-.6,1.1-1.1,1.8-1.4.7-.3,1.4-.4,2.3-.4s2.1.2,2.9.6,1.6,1,2.2,1.8c.6.8,1.1,1.7,1.4,2.8.3,1.1.5,2.3.5,3.7Z"/>
    <path class="st0" d="M360.6,244.6l-7.8,4.8,1.7,1.5h6.1v7.7h-29.5v-7.7h16.1l-7.9-5.7v-8.1l9.3,7.3,11.9-8v8.1Z"/>
  </g>
</svg>
